<svg width="78" height="78" viewBox="0 0 78 78" fill="none" xmlns="http://www.w3.org/2000/svg">
<circle cx="39" cy="39" r="39" fill="#E4E4E4"/>
<path d="M25.8852 40.6393C26.2474 40.6393 26.541 40.3458 26.541 39.9836C26.541 39.6215 26.2474 39.3279 25.8852 39.3279C25.5231 39.3279 25.2295 39.6215 25.2295 39.9836C25.2295 40.3458 25.5231 40.6393 25.8852 40.6393Z" fill="black"/>
<path d="M28.5082 38.6721C28.8703 38.6721 29.1639 38.3786 29.1639 38.0164C29.1639 37.6542 28.8703 37.3607 28.5082 37.3607C28.146 37.3607 27.8524 37.6542 27.8524 38.0164C27.8524 38.3786 28.146 38.6721 28.5082 38.6721Z" fill="black"/>
<path d="M35.0657 38.0164C35.4278 38.0164 35.7214 37.7228 35.7214 37.3607C35.7214 36.9985 35.4278 36.7049 35.0657 36.7049C34.7035 36.7049 34.4099 36.9985 34.4099 37.3607C34.4099 37.7228 34.7035 38.0164 35.0657 38.0164Z" fill="black"/>
<path d="M23.9181 43.918C24.2802 43.918 24.5738 43.6244 24.5738 43.2623C24.5738 42.9001 24.2802 42.6065 23.9181 42.6065C23.5559 42.6065 23.2623 42.9001 23.2623 43.2623C23.2623 43.6244 23.5559 43.918 23.9181 43.918Z" fill="black"/>
<path d="M27.1968 43.2623C27.5589 43.2623 27.8525 42.9687 27.8525 42.6066C27.8525 42.2444 27.5589 41.9508 27.1968 41.9508C26.8346 41.9508 26.541 42.2444 26.541 42.6066C26.541 42.9687 26.8346 43.2623 27.1968 43.2623Z" fill="black"/>
<path d="M29.8197 41.2951C30.1818 41.2951 30.4754 41.0015 30.4754 40.6394C30.4754 40.2772 30.1818 39.9836 29.8197 39.9836C29.4575 39.9836 29.1639 40.2772 29.1639 40.6394C29.1639 41.0015 29.4575 41.2951 29.8197 41.2951Z" fill="black"/>
<path d="M56.7049 26.2131H47.5246V23.5902C47.5246 23.228 47.8182 22.9344 48.1803 22.9344H53.4262C54.5127 22.9344 55.3935 22.0537 55.3935 20.9672C55.3935 19.8808 54.5127 19 53.4262 19H47.5246C45.3526 19.0022 43.5923 20.7624 43.5902 22.9344V26.2131H34.4098C33.3234 26.2131 32.4426 27.0939 32.4426 28.1803V28.8361C32.4454 29.6811 32.9888 30.4295 33.7915 30.6938L34.0361 34.1193C33.7253 34.101 33.4151 34.082 33.0984 34.082C32.1486 34.084 31.201 34.1731 30.2676 34.3482L28.6767 32.2826C30.2 30.7744 30.2846 28.9967 29.501 27.9803C28.7174 26.9639 26.9712 26.5941 25.1305 27.68L24.7049 27.1246C24.5644 26.9323 24.3306 26.8313 24.0942 26.8608C23.8578 26.8903 23.656 27.0457 23.5671 27.2667C23.4782 27.4877 23.5162 27.7396 23.6662 27.9246L24.0938 28.4807C22.5653 29.9888 22.4905 31.7705 23.2695 32.7829C24.0623 33.8118 25.8151 34.16 27.64 33.0833L28.8689 34.6787C24.0767 36.0492 20.6394 39.6688 20.6394 43.918C20.6378 44.2067 20.6544 44.4951 20.6892 44.7816C20.7681 45.52 21.2561 46.151 21.9508 46.4131V47.8524C20.6316 47.8508 19.5173 48.8311 19.3508 50.1397C19.1843 51.4483 20.0175 52.6764 21.2951 53.0052V54.4098C21.2953 55.3932 21.666 56.3405 22.3331 57.0629H19.9836C19.6215 57.0629 19.3279 57.3565 19.3279 57.7187C19.3279 58.0808 19.6215 58.3744 19.9836 58.3744H58.0164C58.3786 58.3744 58.6721 58.0808 58.6721 57.7187C58.6721 57.3565 58.3786 57.0629 58.0164 57.0629H54.5784C55.1799 56.412 55.543 55.5763 55.6085 54.6924L57.3233 30.6925C58.1256 30.4285 58.669 29.6807 58.6721 28.8361V28.1803C58.6721 27.0939 57.7914 26.2131 56.7049 26.2131V26.2131ZM24.3062 31.9836C23.7817 31.3003 24.263 30.2223 24.9017 29.5325L25.2649 30.0039C25.4055 30.1963 25.6393 30.2972 25.8757 30.2677C26.112 30.2382 26.3138 30.0828 26.4027 29.8618C26.4916 29.6408 26.4537 29.3889 26.3036 29.2039L25.9403 28.7325C26.7331 28.3108 27.9233 28.0826 28.4623 28.7823C29.1141 29.6282 28.2446 31.019 27.3849 31.6813C26.5253 32.3436 24.9587 32.8295 24.3062 31.9836ZM44.9017 22.9344C44.9017 21.4858 46.076 20.3115 47.5246 20.3115H53.4262C53.7884 20.3115 54.082 20.6051 54.082 20.9672C54.082 21.3294 53.7884 21.6229 53.4262 21.6229H48.1803C47.0939 21.6229 46.2131 22.5037 46.2131 23.5902V26.2131H44.9017V22.9344ZM55.7659 34.082H35.3482L35.1141 30.8033H56.0007L55.7659 34.082ZM54.5476 51.1311H46.7758C46.8348 50.9175 46.8661 50.6971 46.8689 50.4754C46.8689 49.0268 45.6945 47.8524 44.2459 47.8524V46.4098C44.9384 46.1508 45.4259 45.5238 45.5062 44.7888C45.5416 44.4999 45.5587 44.2091 45.5574 43.918C45.5574 43.6702 45.5331 43.4269 45.5102 43.1836C46.8036 42.8766 47.6618 41.6493 47.5063 40.3291C47.3508 39.0089 46.231 38.0146 44.9017 38.0164C44.3868 38.0193 43.8845 38.1757 43.459 38.4656C42.3114 37.147 40.8869 36.0981 39.2872 35.3934H55.6728L54.5476 51.1311ZM44.2459 49.1639C44.9702 49.1639 45.5574 49.7511 45.5574 50.4754C45.5574 51.1997 44.9702 51.7869 44.2459 51.7869H32.0584L34.6813 49.1639H44.2459ZM44.9017 54.4098V53.0052C45.2943 52.9028 45.6576 52.7101 45.9626 52.4426H54.4538L54.3003 54.598C54.1954 55.9679 53.0559 57.0276 51.682 57.0328H43.8918C44.5416 56.3136 44.9014 55.379 44.9017 54.4098V54.4098ZM44.2282 39.5246C44.4303 39.3982 44.6633 39.3301 44.9017 39.3279C45.5494 39.325 46.1012 39.798 46.1973 40.4386C46.2934 41.0792 45.9047 41.6933 45.2846 41.8806C45.0548 41.046 44.6985 40.2514 44.2282 39.5246ZM29.7266 35.7941L31.2676 37.7947C31.4893 38.0794 31.8994 38.1314 32.1852 37.9111C32.471 37.6908 32.5251 37.281 32.3062 36.9941L31.1777 35.5292C31.8142 35.4414 32.4559 35.3961 33.0984 35.3934C39.2453 35.3934 44.2459 39.2177 44.2459 43.918C44.2467 44.1591 44.2327 44.4 44.2039 44.6393C44.1701 44.9757 43.8862 45.2312 43.5482 45.2295H22.6459C22.3054 45.2289 22.0213 44.9692 21.9902 44.6302C21.9626 44.3938 21.9494 44.156 21.9508 43.918C21.9508 40.1147 25.2236 36.8898 29.7266 35.7941V35.7941ZM23.2623 46.541H42.9344V47.8524H34.4098C34.2359 47.8525 34.0692 47.9216 33.9462 48.0446L29.1954 52.7947L25.0643 48.0734C24.9399 47.933 24.7614 47.8526 24.5738 47.8524H23.2623V46.541ZM20.6394 50.4754C20.6394 49.7511 21.2265 49.1639 21.9508 49.1639H24.2761L26.5712 51.7869H21.9508C21.2265 51.7869 20.6394 51.1997 20.6394 50.4754V50.4754ZM25.2295 57.0328C23.7809 57.0328 22.6066 55.8584 22.6066 54.4098V53.0983H27.7213L28.2118 53.659C28.4513 53.9316 28.7928 54.0932 29.1554 54.1056H29.198C29.546 54.1052 29.8796 53.9671 30.1259 53.7213L30.7469 53.0983H43.5902V54.4098C43.5902 55.8584 42.4158 57.0328 40.9672 57.0328H25.2295ZM57.3607 28.8361C57.3607 29.1982 57.0671 29.4918 56.7049 29.4918H34.4098C34.0477 29.4918 33.7541 29.1982 33.7541 28.8361V28.1803C33.7541 27.8182 34.0477 27.5246 34.4098 27.5246H56.7049C57.0671 27.5246 57.3607 27.8182 57.3607 28.1803V28.8361Z" fill="black"/>
<path d="M51.459 36.7049C50.0104 36.7049 48.8361 37.8792 48.8361 39.3279C48.8361 40.7765 50.0104 41.9508 51.459 41.9508C52.9076 41.9508 54.082 40.7765 54.082 39.3279C54.082 37.8792 52.9076 36.7049 51.459 36.7049ZM51.459 40.6393C50.7347 40.6393 50.1475 40.0522 50.1475 39.3279C50.1475 38.6036 50.7347 38.0164 51.459 38.0164C52.1833 38.0164 52.7705 38.6036 52.7705 39.3279C52.7705 40.0522 52.1833 40.6393 51.459 40.6393Z" fill="black"/>
<path d="M49.4917 45.2295C48.4053 45.2295 47.5245 46.1103 47.5245 47.1967C47.5245 48.2832 48.4053 49.1639 49.4917 49.1639C50.5782 49.1639 51.459 48.2832 51.459 47.1967C51.459 46.1103 50.5782 45.2295 49.4917 45.2295ZM49.4917 47.8525C49.1296 47.8525 48.836 47.5589 48.836 47.1967C48.836 46.8346 49.1296 46.541 49.4917 46.541C49.8539 46.541 50.1475 46.8346 50.1475 47.1967C50.1475 47.5589 49.8539 47.8525 49.4917 47.8525Z" fill="black"/>
</svg>
