<svg width="78" height="78" viewBox="0 0 78 78" fill="none" xmlns="http://www.w3.org/2000/svg">
<circle cx="39" cy="39" r="39" fill="#E4E4E4"/>
<g clip-path="url(#clip0_187:320)">
<path d="M53.1277 37.7354C50.6057 37.7354 49.2547 39.5655 48.0017 42.3136C46.3318 45.9769 44.6179 48.0778 43.2998 48.0778C43.0572 48.0778 42.3181 48.0778 41.6748 46.6419C41.4734 46.1927 40.9799 45.9431 40.5005 46.048C38.1292 46.5684 36.39 47.6469 35.3311 49.253C34.451 50.5881 34.2852 51.9517 34.2648 52.6453C34.2566 52.9331 34.3615 53.2044 34.5608 53.4098C34.7598 53.6146 35.0274 53.7275 35.3143 53.7275H43.1588C43.2696 54.603 43.3618 55.4636 43.4338 56.2958C41.2033 57.9117 38.6902 57.9655 36.947 57.7146C34.9453 57.4262 32.9263 56.6544 30.9735 55.9083C30.1974 55.6116 29.3951 55.3049 28.5986 55.0297C26.2143 54.2054 24.3258 53.8492 22.5949 53.9072C23.5214 46.4207 25.7098 38.5898 27.2217 35.8442H29.899C29.6951 36.9153 29.4647 38.5148 29.2367 40.4502C29.1989 40.7715 29.4287 41.063 29.7503 41.1008C29.7735 41.1036 29.7964 41.1048 29.8193 41.1048C30.1123 41.1048 30.3656 40.8854 30.4007 40.5872C30.6427 38.5325 30.885 36.8726 31.0928 35.8442H34.8044C35.0113 36.8757 35.2524 38.5288 35.4947 40.5872C35.5298 40.8854 35.7831 41.1048 36.076 41.1048C36.0986 41.1048 36.1218 41.1036 36.145 41.1008C36.4666 41.063 36.6964 40.7715 36.6586 40.4502C36.4303 38.5123 36.2011 36.9184 35.9979 35.8442H38.5537C39.4888 37.5587 40.6918 41.2708 41.6726 45.4935C41.7355 45.7645 41.9763 45.9473 42.2427 45.9473C42.2867 45.9473 42.3312 45.9424 42.3758 45.9321C42.691 45.8588 42.8872 45.5439 42.814 45.2286C41.7914 40.8246 40.5111 36.9279 39.5123 35.1575C39.6734 34.3976 39.8587 33.5663 40.0381 32.7601C40.5005 30.6858 40.9784 28.5407 41.1065 27.3365C41.2927 25.5872 41.166 21.2342 41.1227 19.9418C41.105 19.4138 40.6772 19 40.1486 19H38.7738C38.2364 19 37.7993 19.4373 37.7993 19.9747V21.384C37.7993 24.1529 35.5838 26.413 32.8604 26.4222H32.8433C31.5188 26.4222 30.2746 25.907 29.3383 24.9711C28.4027 24.0351 27.8872 22.7906 27.8872 21.4661V19.9747C27.8872 19.4373 27.4499 19 26.9125 19H25.538C25.0094 19 24.5816 19.4138 24.5639 19.9418C24.5389 20.6864 24.4809 22.6096 24.4809 24.379C24.4809 24.7025 24.743 24.965 25.0668 24.965C25.3903 24.965 25.6527 24.7025 25.6527 24.379C25.6527 22.7622 25.7016 21.0126 25.7287 20.1719H26.7154V21.4661C26.7154 23.1034 27.3526 24.6424 28.5098 25.7996C29.6725 26.9623 31.2161 27.5968 32.8647 27.5941C36.2317 27.5828 38.9712 24.7968 38.9712 21.384V20.1719H39.9579C40.0049 21.637 40.1114 25.6144 39.9414 27.2123C39.8199 28.3506 39.3496 30.4627 38.8943 32.5052C38.7329 33.23 38.5672 33.9747 38.4176 34.6723H35.303C35.2862 34.6717 35.2691 34.6717 35.252 34.6723H30.6164C30.5978 34.6714 30.5792 34.6714 30.5603 34.6723H27.2677C27.1249 34.0082 26.9671 33.3002 26.8136 32.6102C26.3488 30.525 25.8682 28.3683 25.7452 27.2123C25.7303 27.0719 25.7165 26.9001 25.7037 26.6868C25.6839 26.3639 25.4068 26.1194 25.083 26.1378C24.7601 26.1573 24.5141 26.4353 24.534 26.7582C24.548 26.9892 24.563 27.1781 24.5797 27.3362C24.7101 28.5584 25.1977 30.7477 25.6695 32.8651C25.8508 33.678 26.0376 34.5164 26.1981 35.2738C25.404 36.7197 24.454 39.4239 23.5705 42.7625C22.5604 46.5793 21.7709 50.7383 21.3473 54.473C21.3275 54.6494 21.3882 54.8252 21.513 54.9512C21.6378 55.0773 21.8127 55.1398 21.9894 55.1221C23.7442 54.9424 25.664 55.2555 28.2156 56.1375C28.9944 56.4063 29.7879 56.7097 30.5551 57.0029C32.5677 57.7723 34.649 58.5676 36.7798 58.8746C37.3626 58.9585 37.9345 59 38.4927 59C40.729 59 42.749 58.3314 44.4064 57.0295C44.5611 56.908 44.6444 56.7173 44.6286 56.5214C44.5556 55.6196 44.4589 54.6824 44.3399 53.7275H44.6985C45.2194 53.7275 45.6787 53.397 45.8416 52.9047C46.34 51.3965 47.4035 49.7053 48.7594 48.2645C49.7845 47.175 50.7293 46.5064 51.3037 46.2919C51.3955 46.7066 51.4419 47.5098 51.4419 48.6896V52.6728C51.4419 53.2542 51.9149 53.7275 52.4966 53.7275H53.4671C54.0484 53.7275 54.5218 53.2542 54.5218 52.6728V48.6896C54.5218 47.819 54.8773 47.0786 55.2542 46.2952C55.6869 45.395 56.134 44.4642 56.134 43.2441C56.134 40.0522 54.8697 37.7354 53.1277 37.7354V37.7354ZM54.198 45.7874C53.7808 46.655 53.3499 47.5519 53.3499 48.6896V52.5556H52.6138V48.6896C52.6138 46.8171 52.5268 45.7105 52.0678 45.2268C51.9574 45.1102 51.8036 45.0443 51.6427 45.0443C50.2859 45.0443 48.4396 46.8943 47.9062 47.4613C46.4373 49.0223 45.2792 50.8723 44.729 52.537C44.7253 52.5477 44.7125 52.5556 44.6985 52.5556H43.6868C43.6789 52.5553 43.6706 52.5553 43.6627 52.5556H35.4413C35.5142 51.193 36.2014 48.2343 40.6488 47.2156C41.2793 48.5654 42.171 49.2496 43.2998 49.2496C45.1764 49.2496 47.117 47.0795 49.068 42.7997C50.3784 39.9256 51.4407 38.9072 53.1277 38.9072C53.8968 38.9072 54.9621 40.4142 54.9621 43.2441C54.9621 44.1974 54.591 44.9698 54.198 45.7874V45.7874Z" fill="black"/>
<path d="M56.6019 28.4434C56.598 28.4333 56.5937 28.4232 56.5894 28.4135L54.8493 24.3177C54.6781 23.9146 54.2841 23.6539 53.8462 23.6539H44.5111C44.0729 23.6539 43.6792 23.9146 43.5077 24.318L43.2895 24.8316C43.1629 25.1298 43.3017 25.4737 43.5996 25.6C43.8977 25.7267 44.2417 25.5878 44.368 25.29L44.5652 24.8258H46.8033L46.3352 28.0689H43.1876L43.4214 27.5181C43.548 27.2202 43.4092 26.8763 43.1113 26.7496C42.8135 26.6233 42.4692 26.7621 42.3429 27.06L41.7679 28.4135C41.7633 28.4232 41.7594 28.4333 41.7554 28.4434C41.601 28.8257 41.6773 29.2686 41.9519 29.5771L48.3646 36.7753C48.5697 37.0057 48.8639 37.1384 49.1721 37.1403H49.1785H49.1849C49.4931 37.1384 49.7873 37.0057 49.9924 36.7753L56.4051 29.5771C56.68 29.2686 56.7563 28.8254 56.6019 28.4434V28.4434ZM46.3117 29.3571L47.8479 34.4337L43.2218 29.2408H46.2821C46.2906 29.2811 46.3004 29.3198 46.3117 29.3571V29.3571ZM50.7493 31.6181C50.4392 31.5247 50.1123 31.6996 50.0187 32.0093L49.1785 34.7852L47.501 29.2408H50.8564L50.7181 29.6976C50.6244 30.0074 50.7996 30.3342 51.1094 30.4282C51.4191 30.5216 51.7463 30.3467 51.84 30.037L52.0456 29.3571C52.0569 29.3201 52.0667 29.2811 52.0752 29.2408H55.1355L50.5094 34.4337L51.1405 32.3487C51.2339 32.0389 51.0587 31.7118 50.7493 31.6181V31.6181ZM55.1697 28.0689H52.0218L51.554 24.8258H53.7919L55.1697 28.0689ZM47.9874 24.8258H50.3699L50.8378 28.0689H47.5193L47.9874 24.8258Z" fill="black"/>
</g>
<defs>
<clipPath id="clip0_187:320">
<rect width="40" height="40" fill="white" transform="translate(19 19)"/>
</clipPath>
</defs>
</svg>
