<svg width="78" height="78" viewBox="0 0 78 78" fill="none" xmlns="http://www.w3.org/2000/svg">
<circle cx="39" cy="39" r="39" fill="#E4E4E4"/>
<path d="M21.7319 49.9911C21.5789 49.6563 21.5 49.2923 21.5005 48.9242V48.1631C21.4989 41.655 22.5259 35.1875 24.5436 29H38.2297C37.6554 30.8034 37.1582 32.6462 36.7492 34.4896L37.9695 34.7604C38.3992 32.8238 38.9292 30.8885 39.5441 29H40.8755C41.5383 28.9993 42.1738 28.7356 42.6424 28.2669C43.1111 27.7983 43.3747 27.1628 43.3755 26.5V24.625C43.3755 24.5429 43.3593 24.4616 43.3279 24.3858C43.2965 24.31 43.2505 24.2411 43.1924 24.1831C43.1344 24.125 43.0655 24.079 42.9897 24.0476C42.9138 24.0162 42.8326 24 42.7505 24H39.6255C39.6262 23.3372 39.8899 22.7017 40.3585 22.2331C40.8272 21.7644 41.4627 21.5007 42.1255 21.5H42.2386C42.7868 21.5009 43.3196 21.6816 43.7553 22.0143C44.1909 22.3471 44.5054 22.8136 44.6505 23.3422L45.5702 26.7145C45.7884 27.5142 45.9933 28.3302 46.1794 29.14L47.3976 28.86C47.2078 28.034 46.9987 27.2014 46.7762 26.3856L45.8565 23.0133C45.6388 22.2203 45.1671 21.5207 44.5136 21.0215C43.8601 20.5224 43.0609 20.2514 42.2386 20.25H25.2505C24.2563 20.2511 23.3031 20.6466 22.6001 21.3496C21.8971 22.0526 21.5016 23.0058 21.5005 24V26.5C21.5012 27.0344 21.6728 27.5546 21.9902 27.9845C22.3077 28.4145 22.7544 28.7315 23.265 28.8894C21.2657 35.1185 20.2487 41.621 20.2505 48.1631V48.9242C20.2497 49.471 20.3669 50.0115 20.5942 50.5089L21.7319 49.9911ZM42.1255 25.25V26.5C42.1255 26.8315 41.9938 27.1495 41.7594 27.3839C41.525 27.6183 41.207 27.75 40.8755 27.75C40.544 27.75 40.226 27.6183 39.9916 27.3839C39.7572 27.1495 39.6255 26.8315 39.6255 26.5V25.25H42.1255ZM22.7505 26.5V24C22.7512 23.3372 23.0149 22.7017 23.4835 22.2331C23.9522 21.7644 24.5877 21.5007 25.2505 21.5H39.3327C38.7157 22.1864 38.3747 23.077 38.3755 24V26.5C38.375 26.939 38.4907 27.3703 38.711 27.75H24.0005C23.6691 27.7496 23.3514 27.6178 23.117 27.3835C22.8827 27.1491 22.7509 26.8314 22.7505 26.5V26.5Z" fill="black"/>
<path d="M51.6422 36.851L51.3576 38.0681C55.1531 38.9556 56.4999 40.1348 56.4999 40.875C56.4999 41.5113 55.5967 42.2498 53.9268 42.9022C53.635 41.9727 52.4609 41.2041 50.4241 40.613L50.0757 41.8135C51.8117 42.3172 52.654 42.9251 52.7418 43.3098C50.2586 44.0654 46.6324 44.625 42.1249 44.625C37.6172 44.625 33.9909 44.0654 31.5077 43.3097C31.6326 42.7199 33.4151 41.7177 37.2103 41.1941L37.0395 39.9559C35.1353 40.2186 33.517 40.626 32.3597 41.1341C31.2192 41.6348 30.537 42.228 30.3232 42.9023C28.6531 42.2498 27.7499 41.5114 27.7499 40.875C27.7499 40.6115 27.9646 39.6754 30.7277 38.6922C32.8326 37.9433 35.7841 37.42 39.0385 37.2189L38.9613 35.9712C35.5935 36.1794 32.5206 36.7275 30.3087 37.5146C27.1607 38.6347 26.4999 39.9603 26.4999 40.875C26.4989 42.1918 26.7438 43.4971 27.222 44.724L28.4868 47.9765L29.6518 47.5235L28.387 44.271C28.2442 43.9036 28.1247 43.5275 28.0292 43.1451C28.8307 43.6808 29.9402 44.1594 31.3433 44.5686C34.2317 45.4111 38.0607 45.875 42.1249 45.875C46.1891 45.875 50.0181 45.4111 52.9065 44.5686C54.3095 44.1594 55.4191 43.6808 56.2206 43.1451C56.1251 43.5275 56.0056 43.9036 55.8628 44.271L53.717 49.7888C53.5138 50.3119 53.2333 50.8017 52.8849 51.2417L53.8648 52.0177C54.2907 51.4799 54.6336 50.8813 54.882 50.2418L57.0278 44.724C57.506 43.4971 57.7508 42.1918 57.7499 40.875C57.7499 38.6163 53.9232 37.3843 51.6422 36.851Z" fill="black"/>
<path d="M46.6808 32.0135C43.6108 33.13 41.0831 35.3768 39.6144 38.2947L37.8159 41.8908L38.9339 42.4499L40.7324 38.8536C41.9804 36.3747 44.0784 34.4276 46.6433 33.3677C46.6746 33.4894 46.7151 33.6086 46.7644 33.7241C45.0405 35.1756 43.4912 37.1541 42.3677 39.3514L40.5278 42.9257L41.6392 43.4978L43.4799 39.9221C44.5227 37.8825 45.9509 36.0515 47.5359 34.7089C47.6058 34.7618 47.6785 34.8109 47.7536 34.8561C47.8368 34.9056 47.9229 34.9501 48.0114 34.9894C47.7612 35.458 47.5003 35.9455 47.2288 36.4519C46.5471 37.7242 45.8448 39.0432 45.1219 40.4088L43.7046 43.0823L44.8091 43.6677L46.2273 40.9926C46.9463 39.6261 47.6474 38.3093 48.3306 37.0422C48.6536 36.4392 48.9643 35.8594 49.2573 35.3097C49.3848 37.4509 48.9062 39.5847 47.8762 41.4664L46.9985 43.0757L48.0959 43.6743L48.9736 42.065C50.2003 39.8248 50.7207 37.2659 50.4664 34.7245C50.7208 34.5377 50.9362 34.303 51.1007 34.0337L56.0753 25.8933C56.4135 25.3396 56.5179 24.6741 56.3656 24.0434C56.2132 23.4126 55.8166 22.8682 55.2629 22.5299C54.7092 22.1915 54.0438 22.0869 53.413 22.2391C52.7822 22.3912 52.2377 22.7877 51.8992 23.3413L46.9245 31.4817C46.8225 31.6486 46.7406 31.8272 46.6808 32.0135V32.0135ZM47.9911 32.1334L52.9658 23.9931C53.0477 23.8588 53.1552 23.742 53.2823 23.6493C53.4094 23.5566 53.5535 23.4899 53.7064 23.453C53.8593 23.416 54.0179 23.4095 54.1733 23.4339C54.3287 23.4583 54.4777 23.513 54.612 23.5951C54.7462 23.6771 54.8629 23.7847 54.9555 23.9119C55.0481 24.039 55.1147 24.1832 55.1515 24.3361C55.1884 24.489 55.1947 24.6477 55.1702 24.803C55.1457 24.9584 55.0908 25.1074 55.0087 25.2416L50.0341 33.3819C49.9522 33.5162 49.8446 33.633 49.7175 33.7257C49.5904 33.8184 49.4463 33.8851 49.2935 33.922C49.1406 33.959 48.9819 33.9655 48.8265 33.9411C48.6712 33.9167 48.5221 33.862 48.3879 33.7799C48.2537 33.6979 48.1369 33.5903 48.0444 33.4631C47.9518 33.336 47.8852 33.1918 47.8483 33.0389C47.8115 32.886 47.8051 32.7273 47.8296 32.572C47.8541 32.4166 47.909 32.2676 47.9911 32.1334V32.1334Z" fill="black"/>
<path d="M51.3642 51.6496C51.1241 51.4308 50.8412 51.2643 50.5334 51.1606C50.2256 51.0568 49.8997 51.0182 49.5761 51.0471L48.9859 51.1007C48.5956 50.4596 48.047 49.9296 47.3927 49.5617C46.7384 49.1938 46.0005 49.0004 45.2499 49H27.1249C26.3741 49.0002 25.6359 49.1936 24.9813 49.5615C24.3267 49.9294 23.7778 50.4595 23.3873 51.1008L22.7988 51.0473C22.4842 51.0187 22.1671 51.0542 21.8666 51.1516C21.566 51.249 21.2884 51.4063 21.0504 51.614C20.8123 51.8217 20.6189 52.0755 20.4817 52.3601C20.3445 52.6446 20.2665 52.9541 20.2523 53.2697C20.238 53.5853 20.2879 53.9005 20.3989 54.1962C20.5099 54.492 20.6797 54.7622 20.8981 54.9905C21.1164 55.2188 21.3788 55.4004 21.6693 55.5245C21.9599 55.6485 22.2725 55.7124 22.5885 55.7122C22.6584 55.7122 22.7286 55.7091 22.7988 55.7027L23.3872 55.6492C23.7796 56.2888 24.329 56.8176 24.9831 57.1852C25.6373 57.5529 26.3745 57.7473 27.1249 57.75H45.2499C45.8247 57.7517 46.394 57.6394 46.925 57.4194C47.456 57.1995 47.938 56.8764 48.3432 56.4688C48.5901 56.2222 48.8067 55.9472 48.9886 55.6495L49.5769 55.703C49.6474 55.7093 49.719 55.7125 49.7898 55.7125C50.2608 55.7121 50.7208 55.5693 51.1093 55.3029C51.4978 55.0365 51.7968 54.6589 51.967 54.2197C52.1372 53.7804 52.1707 53.3 52.0632 52.8414C51.9556 52.3828 51.712 51.9673 51.3642 51.6496V51.6496ZM22.6856 54.4578C22.5394 54.4711 22.3921 54.4546 22.2524 54.4094C22.1128 54.3641 21.9838 54.2911 21.8731 54.1947C21.7624 54.0983 21.6724 53.9804 21.6085 53.8483C21.5446 53.7162 21.5081 53.5725 21.5013 53.4258C21.4944 53.2792 21.5173 53.1327 21.5685 52.9952C21.6198 52.8576 21.6983 52.7319 21.7995 52.6255C21.9007 52.5192 22.0223 52.4344 22.1571 52.3763C22.2919 52.3182 22.4371 52.288 22.5838 52.2875C22.6176 52.2875 22.6515 52.2891 22.6857 52.2922L26.4485 52.6343C26.6333 52.6511 26.8052 52.7364 26.9304 52.8734C27.0555 53.0105 27.1249 53.1894 27.1249 53.375C27.1249 53.5606 27.0555 53.7395 26.9304 53.8766C26.8052 54.0136 26.6333 54.0989 26.4485 54.1157H26.4485L22.6856 54.4578ZM24.8529 55.516L26.5616 55.3606H26.5617C27.0572 55.3156 27.5179 55.0869 27.8534 54.7195C28.1889 54.3521 28.3749 53.8725 28.3749 53.375C28.3749 52.8775 28.1889 52.3979 27.8534 52.0305C27.5179 51.6631 27.0571 51.4344 26.5616 51.3894L24.8496 51.2337C24.8714 51.2107 24.8931 51.1876 24.9156 51.1651C25.279 50.8018 25.7264 50.5337 26.2182 50.3846C26.7099 50.2355 27.2309 50.2099 27.7349 50.3102C28.2389 50.4105 28.7104 50.6336 29.1076 50.9596C29.5048 51.2856 29.8155 51.7046 30.0121 52.1794C30.2088 52.6542 30.2853 53.1701 30.2349 53.6815C30.1845 54.1929 30.0087 54.684 29.7232 55.1113C29.4377 55.5386 29.0512 55.8888 28.598 56.1311C28.1448 56.3733 27.6388 56.5 27.1249 56.5C26.6993 56.4984 26.2785 56.4104 25.8879 56.2412C25.4973 56.0721 25.1452 55.8253 24.8529 55.516V55.516ZM47.4593 55.5849C47.1699 55.876 46.8256 56.1068 46.4463 56.2639C46.0671 56.421 45.6604 56.5013 45.2499 56.5H30.1826C30.5996 56.0933 30.9309 55.6073 31.1571 55.0707C31.3834 54.534 31.4999 53.9574 31.4999 53.375C31.4999 52.7926 31.3834 52.216 31.1571 51.6794C30.9309 51.1427 30.5996 50.6567 30.1826 50.25H45.2499C45.868 50.25 46.4722 50.4332 46.9862 50.7767C47.5001 51.1201 47.9006 51.6082 48.1371 52.1792C48.3736 52.7503 48.4355 53.3787 48.3148 53.9849C48.1942 54.5911 47.8964 55.1479 47.4593 55.5849V55.5849ZM49.7898 54.4625C49.7561 54.4625 49.722 54.461 49.6894 54.458L49.495 54.4404C49.6689 53.7407 49.6682 53.0091 49.4932 52.3098L49.689 52.292C49.8353 52.2787 49.9827 52.2952 50.1224 52.3404C50.2621 52.3856 50.3913 52.4587 50.502 52.5552C50.6127 52.6517 50.7027 52.7696 50.7666 52.9018C50.8305 53.0341 50.8669 53.1779 50.8738 53.3246C50.8806 53.4713 50.8576 53.6178 50.8062 53.7554C50.7548 53.893 50.6761 54.0188 50.5748 54.1251C50.4735 54.2314 50.3518 54.3162 50.2168 54.3741C50.0819 54.4321 49.9366 54.4622 49.7898 54.4625L49.7898 54.4625Z" fill="black"/>
</svg>
